<?xml version="1.0" encoding="UTF-8"?>
<svg id="Layer_2" data-name="Layer 2" xmlns="http://www.w3.org/2000/svg" viewBox="0 0 1043.99 279.2">
  <g id="Layer_1-2" data-name="Layer 1">
    <g>
      <g>
        <polygon points="947.69 146.48 900.75 81.2 939.59 81.2 971.7 129.22 1003.8 81.2 1041.83 81.2 994.36 146.48 1043.99 214.46 1005.15 214.46 970.62 163.2 936.36 214.46 898.59 214.46 947.69 146.48"/>
        <rect x="437.94" y="33.99" width="32.1" height="180.47"/>
        <path d="M485.99,147.83c0-40.47,29.67-70.14,71.75-70.14s71.22,29.67,71.22,70.14v11.33h-109.25c4.31,19.42,19.15,29.67,38.03,29.67,14.3,0,24.82-4.04,31.56-12.67h34.26c-9.99,25.35-34.26,41.81-65.82,41.81-42.09,0-71.75-29.67-71.75-70.13M594.97,133.53c-5.12-17.8-19.7-26.7-37.23-26.7s-32.1,9.17-37.22,26.7h74.45Z"/>
        <path d="M699.67,188.03c-13.21,0-22.39-7.02-22.39-24.82v-52.87h62.31l-13.26-29.14h-49.05v-47.21h-32.1v129.22c0,36.95,22.12,54.76,54.49,54.76h39.93v-29.94h-39.93Z"/>
        <polygon points="840.09 214.46 779.42 81.2 746.14 81.2 806.8 214.46 840.09 214.46"/>
        <polygon points="809.23 279.2 903.17 81.2 869.89 81.2 775.94 279.2 809.23 279.2"/>
        <path d="M350.48,77.69c-42.36,0-72.02,29.13-72.02,71.48,0,45.59,33.99,68.79,66.36,68.79,10.2,0,19.69-2.37,27.7-7.03v-29.21c-6.12,4.02-13.68,6.3-22.31,6.3-23.47,0-39.38-16.72-39.38-40.19s15.91-40.19,39.38-40.19c22.1,0,37.25,14.83,38.95,36.15l.17-.18s0,.07,0,.18h-.18v70.67h32.27v-65.55c0-42.89-29.13-71.21-70.95-71.21"/>
      </g>
      <g>
        <path d="M272.12,277.13c-24.86-5.53-50.26-9.59-76.13-12.04L100.95,71.51,136.05,0l35.12,71.51,100.95,205.62Z"/>
        <path d="M142.76,129.36l-66.63,135.73c-25.87,2.45-51.29,6.5-76.13,12.04L112.24,48.52l30.52,80.85Z"/>
      </g>
    </g>
  </g>
</svg>