<svg xmlns="http://www.w3.org/2000/svg" viewBox="0 0 300 300">
  <!-- Background -->
  <rect width="300" height="300" fill="#FFFFFF" rx="15" ry="15" />
  
  <!-- Main container -->
  <rect x="20" y="20" width="260" height="260" fill="#f8f9fa" rx="10" ry="10" stroke="#e0e0e0" stroke-width="2" />
  
  <!-- Microservices - Top Row -->
  <rect x="50" y="50" width="60" height="60" rx="5" ry="5" fill="#FFFFFF" stroke="#000000" stroke-width="2" />
  <text x="80" y="85" font-family="Arial, sans-serif" font-size="10" text-anchor="middle" fill="#1a1a1a">Service 1</text>
  
  <rect x="120" y="50" width="60" height="60" rx="5" ry="5" fill="#FFFFFF" stroke="#000000" stroke-width="2" />
  <text x="150" y="85" font-family="Arial, sans-serif" font-size="10" text-anchor="middle" fill="#1a1a1a">Service 2</text>
  
  <rect x="190" y="50" width="60" height="60" rx="5" ry="5" fill="#FFFFFF" stroke="#000000" stroke-width="2" />
  <text x="220" y="85" font-family="Arial, sans-serif" font-size="10" text-anchor="middle" fill="#1a1a1a">Service 3</text>
  
  <!-- Microservices - Bottom Row -->
  <rect x="50" y="190" width="60" height="60" rx="5" ry="5" fill="#FFFFFF" stroke="#000000" stroke-width="2" />
  <text x="80" y="225" font-family="Arial, sans-serif" font-size="10" text-anchor="middle" fill="#1a1a1a">Service 4</text>
  
  <rect x="120" y="190" width="60" height="60" rx="5" ry="5" fill="#FFFFFF" stroke="#000000" stroke-width="2" />
  <text x="150" y="225" font-family="Arial, sans-serif" font-size="10" text-anchor="middle" fill="#1a1a1a">Service 5</text>
  
  <rect x="190" y="190" width="60" height="60" rx="5" ry="5" fill="#FFFFFF" stroke="#000000" stroke-width="2" />
  <text x="220" y="225" font-family="Arial, sans-serif" font-size="10" text-anchor="middle" fill="#1a1a1a">Service 6</text>
  
  <!-- API Gateway -->
  <rect x="120" y="120" width="60" height="60" rx="5" ry="5" fill="#000000" stroke="#000000" stroke-width="2" />
  <text x="150" y="155" font-family="Arial, sans-serif" font-size="10" text-anchor="middle" fill="#FFFFFF">API Gateway</text>
  
  <!-- Connecting Lines -->
  <!-- From top services to API Gateway -->
  <line x1="80" y1="110" x2="120" y2="140" stroke="#1a1a1a" stroke-width="2" />
  <line x1="150" y1="110" x2="150" y2="120" stroke="#1a1a1a" stroke-width="2" />
  <line x1="220" y1="110" x2="180" y2="140" stroke="#1a1a1a" stroke-width="2" />
  
  <!-- From API Gateway to bottom services -->
  <line x1="120" y1="160" x2="80" y2="190" stroke="#1a1a1a" stroke-width="2" />
  <line x1="150" y1="180" x2="150" y2="190" stroke="#1a1a1a" stroke-width="2" />
  <line x1="180" y1="160" x2="220" y2="190" stroke="#1a1a1a" stroke-width="2" />
</svg>