<?xml version="1.0" encoding="UTF-8"?>
<!-- <svg id="Layer_2" data-name="Layer 2" xmlns="http://www.w3.org/2000/svg" viewBox="240 0 1750 206.95"> -->
<svg id="Layer_2" data-name="Layer 2" xmlns="http://www.w3.org/2000/svg" viewBox="240 0 650 206.95">
	<defs>
		<style>
			.cls-1 {
				fill: #FFFFFF;
			}

			.cls-2 {
				fill: #FFFFFF;
			}

			.text {
				fill: #FFFFFF;
				font-family: Poppins, sans-serif;
				font-size: 200px;
				font-weight: 200;
				letter-spacing: -1px;
			}
		</style>
	</defs>
	<g id="Layer_1-2" data-name="Layer 1">
		<g>
			<g>
				<rect y="0" class="cls-1" x="384.1" width="27.3" height="162.8" />
				<path class="cls-1"
					d="M 485.3 46.6 c -35.8 0 -61 25.2 -61 59.6 s 25.2 59.6 61 59.6 c 26.8 0 47.5 -14 56 -35.6 h -29.1 c -5.7 7.3 -14.7 10.8 -26.8 10.8 c -16.1 0 -28.7 -8.7 -32.3 -25.2 h 92.9 v -9.6 c 0 -34.4 -24.8 -59.6 -60.6 -59.6 Z M 453.6 94 c 4.4 -14.9 16.3 -22.7 31.6 -22.7 s 27.3 7.6 31.6 22.7 h -63.3 Z" />
				<polygon class="cls-1"
					points="839.6,107.2 880,49.5 847.6,49.5 820.3,88.3 793,49.5 760,49.5 799.9,107.2 758.2,162.8 790.3,162.8 819.4,125.6 848.8,162.8 881.8,162.8 839.6,107.2" />
				<polygon class="cls-1"
					points="699.6,127.7 668.9,49.5 640.2,49.5 684.7,160.8 665.1,206.9 692.1,206.9 758.2,49.5 731.5,49.5 699.6,127.7" />
				<path class="cls-1"
					d="M 636.3 74.3 l -10.6 -24.8 h -40.1 V 9.4 h -27.3 v 107 c 0 31.4 18.8 46.6 46.3 46.6 h 28.1 v -25.5 h -28.1 c -11.2 0 -19 -6 -19 -21.1 v -42.2 h 50.8 Z" />
				<path class="cls-1"
					d="M 307.8 46.6 c -36 0 -61.2 24.8 -61.2 60.8 c 0 38.8 28.9 58.5 56.4 58.5 c 9.9 0 18.9 -2.6 26.2 -7.8 v -25.1 c -5.6 4.7 -13 7.4 -21.7 7.4 c -19.9 0 -33.5 -14.2 -33.5 -34.2 s 13.5 -34.2 33.5 -34.2 s 33.3 14.2 33.3 34.2 v 56.6 h 27.3 v -56.7 h 0 c -0.4 -35.9 -25 -59.6 -60.3 -59.6 Z" />
			</g>
			<!-- <g>
        <path class="cls-2" d="M 114.3 101.7 c 2 12.7 13.1 22.5 26.4 22.5 c 14.7 0 26.7 -12 26.7 -26.7 c 0 -6.2 -2.1 -11.8 -5.6 -16.4 c -4.9 2.5 -10.2 4.7 -15.7 6.8 c 3.3 1.9 5.6 5.5 5.6 9.5 c 0 6 -4.9 11 -10.9 11 s -10.9 -4.9 -10.9 -11 c 0 -1.3 0.2 -2.5 0.7 -3.7 c -6.8 2.8 -12 5.5 -16.1 7.9 Z"/>
        <path class="cls-2" d="M 56.8 88.1 c -5.5 -2.1 -10.7 -4.3 -15.7 -6.8 c -3.4 4.5 -5.5 10.1 -5.5 16.2 c 0 14.7 12 26.7 26.7 26.7 c 13.2 0 24.2 -9.6 26.3 -22.2 c -4 -2.5 -9.2 -5.1 -15.9 -7.9 c 0.4 1.1 0.6 2.3 0.6 3.5 c 0 6 -4.9 11 -11 11 s -10.9 -4.9 -10.9 -11 c 0 -4 2.2 -7.5 5.4 -9.4 Z"/>
        <path class="cls-2" d="M 101.3 96 s 6.6 -16 37.3 -29.9 l 61.4 -26.8 V 1.9 s -45.7 20.9 -61.4 26.8 c -30.3 11.3 -37.3 29.9 -37.3 29.9 c 0 0 -6.8 -19 -37.3 -29.9 C 48.4 23.1 2.5 3.8 2.5 3.8 v 37.5 l 61.4 24.9 c 30.6 13.6 37.3 29.8 37.3 29.8 Z"/>
        <path class="cls-2" d="M 190.6 60.2 h 0 s 0 0 0 0 c 0 0 0 0 0 0 c 0 0 0 0 0 0 l -14.9 7 l 3.2 3.7 s 0 0 0 0 c 5.3 7.5 8.4 16.7 8.4 26.7 c 0 25.7 -20.9 46.6 -46.6 46.6 c -12.7 0 -24.6 -5.1 -33.5 -14.2 l -5.6 -5.8 l -5.7 5.8 c -8.9 9.2 -20.8 14.2 -33.5 14.2 c -25.7 0 -46.6 -20.9 -46.6 -46.6 c 0 -9.8 3 -18.9 8.2 -26.4 l 3.2 -3.6 l -14.9 -7 C 4.5 70.9 0 83.7 0 97.5 c 0 34.4 28 62.3 62.3 62.3 c 10.7 0 20.8 -2.6 29.9 -7.6 c 0 0 0 0 0 0 c 2.3 3.8 5.5 8.1 10.2 12.3 c 4.3 -3.9 7.5 -7.9 9.7 -11.5 c 8.7 4.5 18.4 6.9 28.6 6.9 c 34.4 0 62.3 -28 62.3 -62.3 c 0 -14 -4.6 -26.9 -12.4 -37.3 Z"/>
      </g> -->
		</g>
	</g>
	<!-- <text x="930" y="157" class="text">playground</text> -->
</svg>
