<?xml version="1.0" encoding="UTF-8" standalone="no" ?>
<svg
  viewBox="0.001 0 2284.265 435.59"
  width="2284.2649"
  height="435.59"
  version="1.1"
  id="svg15"
  sodipodi:docname="app_logo_rgb_fullcolor_reverse.svg"
  inkscape:version="1.4 (e7c3feb1, 2024-10-09)"
  inkscape:export-filename="app_logo_rgb_fullcolor_reverse.svg"
  inkscape:export-xdpi="96"
  inkscape:export-ydpi="96"
  xmlns:inkscape="http://www.inkscape.org/namespaces/inkscape"
  xmlns:sodipodi="http://sodipodi.sourceforge.net/DTD/sodipodi-0.dtd"
  xmlns="http://www.w3.org/2000/svg"
  xmlns:svg="http://www.w3.org/2000/svg"
>
  <sodipodi:namedview
    id="namedview1"
    pagecolor="#ffffff"
    bordercolor="#000000"
    borderopacity="0.25"
    inkscape:showpageshadow="2"
    inkscape:pageopacity="0.0"
    inkscape:pagecheckerboard="0"
    inkscape:deskcolor="#d1d1d1"
    inkscape:zoom="0.46229314"
    inkscape:cx="1141.0509"
    inkscape:cy="217.39453"
    inkscape:window-width="2432"
    inkscape:window-height="1150"
    inkscape:window-x="2447"
    inkscape:window-y="527"
    inkscape:window-maximized="0"
    inkscape:current-layer="svg15"
  >
    <inkscape:page x="0" y="0" width="2284.2649" height="435.59" id="page2" margin="0" bleed="0" />
  </sodipodi:namedview>
  <!--
	- Licensed to the Apache Software Foundation (ASF) under one
	- or more contributor license agreements.  See the NOTICE file
	- distributed with this work for additional information
	- regarding copyright ownership.  The ASF licenses this file
	- to you under the Apache License, Version 2.0 (the
	- "License"); you may not use this file except in compliance
	- with the License.  You may obtain a copy of the License at
	-
	-   http://www.apache.org/licenses/LICENSE-2.0
	-
	- Unless required by applicable law or agreed to in writing,
	- software distributed under the License is distributed on an
	- "AS IS" BASIS, WITHOUT WARRANTIES OR CONDITIONS OF ANY
	- KIND, either express or implied.  See the License for the
	- specific language governing permissions and limitations
	- under the License.
	-->
  <defs id="defs1">
    <style id="style1">
			.cls-1{fill:#f5891f;}.cls-2{fill:#97d4e8;}.cls-3{fill:#fff;}.cls-4{fill:#085870;}
		</style>
  </defs>
  <g id="g3" transform="matrix(3,0,0,3,-1236.3887,-1133.6405)" style="fill:#ffffff">
    <polygon
      class="cls-1"
      points="822.08,481.09 806.39,481.09 826.78,452.86 807.29,425.75 823.42,425.75 836.75,445.69 850.08,425.75 865.88,425.75 846.17,452.86 866.78,481.09 850.65,481.09 836.31,459.8 "
      id="polygon1"
      style="fill:#ffffff"
    />
    <rect class="cls-1" x="615.09003" y="406.14001" width="13.33" height="74.949997" id="rect1" style="fill:#ffffff" />
    <path
      class="cls-1"
      d="m 635.05,453.42 c 0,-16.81 12.32,-29.13 29.8,-29.13 17.48,0 29.58,12.32 29.58,29.13 v 4.71 h -45.37 c 1.79,8.06 7.95,12.32 15.79,12.32 5.94,0 10.31,-1.68 13.11,-5.26 h 14.23 c -4.15,10.53 -14.23,17.36 -27.34,17.36 -17.48,0 -29.8,-12.32 -29.8,-29.12 m 45.26,-5.95 c -2.13,-7.39 -8.18,-11.09 -15.46,-11.09 -7.28,0 -13.33,3.81 -15.46,11.09 z"
      id="path1-5"
      style="fill:#ffffff"
    />
    <path
      class="cls-1"
      d="m 723.79,470.11 c -5.49,0 -9.3,-2.91 -9.3,-10.31 v -21.96 h 25.88 l -5.51,-12.1 h -20.37 v -19.61 h -13.33 v 53.66 c 0,15.35 9.19,22.74 22.63,22.74 h 16.58 V 470.1 h -16.58 z"
      id="path2-2"
      style="fill:#ffffff"
    />
    <polygon
      class="cls-1"
      points="743.08,425.75 768.28,481.09 782.1,481.09 756.91,425.75 "
      id="polygon2"
      style="fill:#ffffff"
    />
    <polygon
      class="cls-1"
      points="794.47,425.75 755.46,507.97 769.28,507.97 808.3,425.75 "
      id="polygon3"
      style="fill:#ffffff"
    />
    <path
      class="cls-1"
      d="m 578.77,424.29 c -17.59,0 -29.91,12.1 -29.91,29.69 0,18.93 14.12,28.57 27.56,28.57 4.24,0 8.18,-0.98 11.5,-2.92 V 467.5 c -2.54,1.67 -5.68,2.62 -9.26,2.62 -9.75,0 -16.36,-6.95 -16.36,-16.69 0,-9.74 6.61,-16.69 16.36,-16.69 9.18,0 15.47,6.16 16.17,15.01 l 0.07,-0.07 c 0,0 0,0.03 0,0.07 h -0.07 v 29.35 h 13.4 v -27.22 c 0,-17.81 -12.1,-29.57 -29.46,-29.57"
      id="path3-1"
      style="fill:#ffffff"
    />
  </g>
  <g id="g5" transform="matrix(3,0,0,3,-1236.3887,-1133.6405)">
    <path
      class="cls-2"
      d="m 546.23,507.12 c -10.32,-2.3 -20.87,-3.98 -31.61,-5 l -39.47,-80.39 14.58,-29.7 14.58,29.7 z"
      id="path4-1"
      style="fill:#fc764c"
    />
    <path
      class="cls-2"
      d="m 492.51,445.75 -27.67,56.37 c -10.74,1.02 -21.3,2.7 -31.62,5 l 46.61,-94.94 12.67,33.57 z"
      id="path5-0"
      style="fill:#fc764c"
    />
  </g>
  <text
    xml:space="preserve"
    style="font-style:normal;font-variant:normal;font-weight:normal;font-stretch:normal;font-size:141.273px;font-family:Poppins, sans-serif;-inkscape-font-specification:'Poppins, sans-serif, Normal';font-variant-ligatures:normal;font-variant-caps:normal;font-variant-numeric:normal;font-variant-east-asian:normal;text-align:start;writing-mode:lr-tb;direction:ltr;text-anchor:start;fill:#f2f2f2;fill-opacity:0.792683;stroke-width:0.706362;stroke-opacity:0.0740741"
    x="1325.2467"
    y="279.69949"
    id="text15"
    transform="scale(1.0573735,0.94573961)"
  ><tspan id="tspan15" x="1325.2467" y="279.69949" style="stroke-width:0.706362">Playground</tspan></text>
</svg>
